<svg xmlns="http://www.w3.org/2000/svg" viewBox="0 0 100 100" fill="none">
  <defs>
    <linearGradient id="logo-grad" x1="0%" y1="0%" x2="100%" y2="100%">
      <stop offset="0%" stop-color="#10b981" />
      <stop offset="100%" stop-color="#059669" />
    </linearGradient>
  </defs>
  
  <!-- High-contrast background for browser tabs -->
  <circle cx="50" cy="50" r="46" fill="#ffffff" stroke="#f1f5f9" stroke-width="2" />
  
  <!-- Outer circular loop -->
  <path 
    d="M32 50C32 60 40 68 50 68C60 68 68 60 68 50C68 40 60 32 50 32" 
    stroke="url(#logo-grad)" 
    stroke-width="6" 
    stroke-linecap="round" 
  />
  <path 
    d="M50 68C40 68 32 60 32 50C32 40 40 32 50 32C60 32 68 40 68 50" 
    stroke="#d1fae5" 
    stroke-width="3" 
    stroke-linecap="round" 
    stroke-dasharray="4 6" 
  />
  
  <!-- Central Leaf element -->
  <path 
    d="M50 18C50 18 62 30 62 40C62 48 56 54 50 54C44 54 38 48 38 40C38 30 50 18 50 18Z" 
    fill="url(#logo-grad)" 
  />
  <path 
    d="M50 26V47" 
    stroke="white" 
    stroke-width="2" 
    stroke-linecap="round" 
  />
  <path 
    d="M50 32C52 33 54.5 32 54.5 32" 
    stroke="white" 
    stroke-width="1.5" 
    stroke-linecap="round" 
  />
  <path 
    d="M50 38C48 39 45.5 38 45.5 38" 
    stroke="white" 
    stroke-width="1.5" 
    stroke-linecap="round" 
  />
</svg>
